<?xml version="1.0" encoding="UTF-8"?>
<mxfile host="app.diagrams.net" modified="2023-11-15T15:28:59.638Z" agent="Mozilla/5.0 (Windows NT 10.0; Win64; x64) AppleWebKit/537.36 (KHTML, like Gecko) Chrome/116.0.5845.837 YaBrowser/23.9.4.837 Yowser/2.5 Safari/537.36" etag="x_O5M-VV9ufyyqN_irsY" version="22.1.1" type="google">
  <diagram name="Page-1" id="929967ad-93f9-6ef4-fab6-5d389245f69c">
    <mxGraphModel dx="1123" dy="1815" grid="1" gridSize="10" guides="1" tooltips="1" connect="1" arrows="1" fold="1" page="1" pageScale="1.5" pageWidth="1169" pageHeight="826" background="none" math="0" shadow="0">
      <root>
        <mxCell id="0" style=";html=1;" />
        <mxCell id="1" style=";html=1;" parent="0" />
        <mxCell id="SCAu-SgGnWIEM-NVdhJq-42" value="&lt;p style=&quot;margin:0px;margin-top:6px;text-align:center;&quot;&gt;&lt;/p&gt;&lt;div style=&quot;text-align: center;&quot;&gt;&lt;span style=&quot;background-color: initial;&quot;&gt;«c&lt;/span&gt;&lt;span style=&quot;background-color: initial; border-color: var(--border-color);&quot;&gt;omponent&lt;/span&gt;&lt;span style=&quot;background-color: initial;&quot;&gt;»&lt;/span&gt;&lt;/div&gt;&lt;span style=&quot;&quot;&gt;&lt;div style=&quot;text-align: center;&quot;&gt;&lt;span style=&quot;background-color: initial;&quot;&gt;Client&lt;/span&gt;&lt;/div&gt;&lt;/span&gt;&lt;hr&gt;&lt;p style=&quot;margin:0px;margin-left:8px;&quot;&gt;&lt;br&gt;&lt;/p&gt;" style="align=left;overflow=fill;html=1;dropTarget=0;whiteSpace=wrap;" parent="1" vertex="1">
          <mxGeometry x="390" y="-855" width="388.16" height="322" as="geometry" />
        </mxCell>
        <mxCell id="SCAu-SgGnWIEM-NVdhJq-43" value="" style="shape=component;jettyWidth=8;jettyHeight=4;" parent="SCAu-SgGnWIEM-NVdhJq-42" vertex="1">
          <mxGeometry x="1" width="20" height="20" relative="1" as="geometry">
            <mxPoint x="-24" y="4" as="offset" />
          </mxGeometry>
        </mxCell>
        <mxCell id="SCAu-SgGnWIEM-NVdhJq-44" value="«c&lt;span style=&quot;border-color: var(--border-color);&quot;&gt;omponent&lt;/span&gt;»&lt;br&gt;ClientSession" style="html=1;dropTarget=0;whiteSpace=wrap;" vertex="1" parent="1">
          <mxGeometry x="505.1600000000001" y="-794.5" width="148" height="57.5" as="geometry" />
        </mxCell>
        <mxCell id="SCAu-SgGnWIEM-NVdhJq-45" value="" style="shape=module;jettyWidth=8;jettyHeight=4;" vertex="1" parent="SCAu-SgGnWIEM-NVdhJq-44">
          <mxGeometry x="1" width="21" height="20" relative="1" as="geometry">
            <mxPoint x="-28" y="7" as="offset" />
          </mxGeometry>
        </mxCell>
        <mxCell id="SCAu-SgGnWIEM-NVdhJq-46" value="&lt;p style=&quot;margin:0px;margin-top:6px;text-align:center;&quot;&gt;&lt;/p&gt;&lt;div style=&quot;text-align: center;&quot;&gt;&lt;span style=&quot;background-color: initial;&quot;&gt;«c&lt;/span&gt;&lt;span style=&quot;background-color: initial; border-color: var(--border-color);&quot;&gt;omponent&lt;/span&gt;&lt;span style=&quot;background-color: initial;&quot;&gt;»&lt;/span&gt;&lt;/div&gt;&lt;span style=&quot;&quot;&gt;&lt;div style=&quot;text-align: center;&quot;&gt;&lt;span style=&quot;background-color: initial;&quot;&gt;Server&lt;/span&gt;&lt;/div&gt;&lt;/span&gt;&lt;hr&gt;&lt;p style=&quot;margin:0px;margin-left:8px;&quot;&gt;&lt;br&gt;&lt;/p&gt;" style="align=left;overflow=fill;html=1;dropTarget=0;whiteSpace=wrap;" parent="1" vertex="1">
          <mxGeometry x="1026.5" y="-857.25" width="280" height="312.25" as="geometry" />
        </mxCell>
        <mxCell id="SCAu-SgGnWIEM-NVdhJq-47" value="" style="shape=component;jettyWidth=8;jettyHeight=4;" parent="SCAu-SgGnWIEM-NVdhJq-46" vertex="1">
          <mxGeometry x="1" width="20" height="20" relative="1" as="geometry">
            <mxPoint x="-24" y="4" as="offset" />
          </mxGeometry>
        </mxCell>
        <mxCell id="SCAu-SgGnWIEM-NVdhJq-48" value="«c&lt;span style=&quot;border-color: var(--border-color);&quot;&gt;omponent&lt;/span&gt;»&lt;br&gt;ServerSession" style="html=1;dropTarget=0;whiteSpace=wrap;" parent="1" vertex="1">
          <mxGeometry x="1095.0000000000002" y="-802.75" width="145" height="57.5" as="geometry" />
        </mxCell>
        <mxCell id="SCAu-SgGnWIEM-NVdhJq-49" value="" style="shape=module;jettyWidth=8;jettyHeight=4;" parent="SCAu-SgGnWIEM-NVdhJq-48" vertex="1">
          <mxGeometry x="1" width="21" height="20" relative="1" as="geometry">
            <mxPoint x="-28" y="7" as="offset" />
          </mxGeometry>
        </mxCell>
        <mxCell id="dQZn-Cv7lsAbgTTBRTIx-85" value="" style="endArrow=open;endSize=12;dashed=1;html=1;rounded=0;exitX=0.5;exitY=1;exitDx=0;exitDy=0;entryX=0.5;entryY=0;entryDx=0;entryDy=0;" edge="1" parent="1" source="SCAu-SgGnWIEM-NVdhJq-44" target="zw7l0-jRfB2ACPVZ4vOM-47">
          <mxGeometry width="160" relative="1" as="geometry">
            <mxPoint x="344.15999999999997" y="-756" as="sourcePoint" />
            <mxPoint x="668.1600000000001" y="-696" as="targetPoint" />
          </mxGeometry>
        </mxCell>
        <mxCell id="zw7l0-jRfB2ACPVZ4vOM-43" value="«c&lt;span style=&quot;border-color: var(--border-color);&quot;&gt;omponent&lt;/span&gt;»&lt;br&gt;Software" style="html=1;dropTarget=0;whiteSpace=wrap;" vertex="1" parent="1">
          <mxGeometry x="1098.5" y="-711.75" width="139.5" height="57.5" as="geometry" />
        </mxCell>
        <mxCell id="zw7l0-jRfB2ACPVZ4vOM-44" value="" style="shape=module;jettyWidth=8;jettyHeight=4;" vertex="1" parent="zw7l0-jRfB2ACPVZ4vOM-43">
          <mxGeometry x="1" width="21" height="20" relative="1" as="geometry">
            <mxPoint x="-28" y="7" as="offset" />
          </mxGeometry>
        </mxCell>
        <mxCell id="zw7l0-jRfB2ACPVZ4vOM-47" value="&lt;p style=&quot;margin:0px;margin-top:6px;text-align:center;&quot;&gt;«component»&lt;br style=&quot;border-color: var(--border-color);&quot;&gt;Live-USB&lt;/p&gt;" style="align=left;overflow=fill;html=1;dropTarget=0;whiteSpace=wrap;" vertex="1" parent="1">
          <mxGeometry x="504.1600000000001" y="-706" width="150" height="50" as="geometry" />
        </mxCell>
        <mxCell id="zw7l0-jRfB2ACPVZ4vOM-48" value="" style="shape=component;jettyWidth=8;jettyHeight=4;" vertex="1" parent="zw7l0-jRfB2ACPVZ4vOM-47">
          <mxGeometry x="1" width="20" height="20" relative="1" as="geometry">
            <mxPoint x="-24" y="4" as="offset" />
          </mxGeometry>
        </mxCell>
        <mxCell id="dQZn-Cv7lsAbgTTBRTIx-86" value="FreeRDP" style="html=1;whiteSpace=wrap;" vertex="1" parent="1">
          <mxGeometry x="498.1600000000001" y="-606" width="81" height="57.75" as="geometry" />
        </mxCell>
        <mxCell id="zw7l0-jRfB2ACPVZ4vOM-49" value="Alpine Linux" style="html=1;whiteSpace=wrap;" vertex="1" parent="1">
          <mxGeometry x="592.1600000000001" y="-606" width="81" height="57.75" as="geometry" />
        </mxCell>
        <mxCell id="zw7l0-jRfB2ACPVZ4vOM-51" value="XFCE" style="html=1;whiteSpace=wrap;" vertex="1" parent="1">
          <mxGeometry x="681.1600000000001" y="-606" width="81" height="57.75" as="geometry" />
        </mxCell>
        <mxCell id="dQZn-Cv7lsAbgTTBRTIx-92" value="" style="endArrow=block;dashed=1;endFill=0;endSize=12;html=1;rounded=0;exitX=0.5;exitY=0;exitDx=0;exitDy=0;entryX=0.5;entryY=1;entryDx=0;entryDy=0;" edge="1" parent="1" source="zw7l0-jRfB2ACPVZ4vOM-49" target="zw7l0-jRfB2ACPVZ4vOM-47">
          <mxGeometry width="160" relative="1" as="geometry">
            <mxPoint x="524.1600000000001" y="-636" as="sourcePoint" />
            <mxPoint x="684.1600000000001" y="-636" as="targetPoint" />
            <Array as="points">
              <mxPoint x="632.1600000000001" y="-616" />
              <mxPoint x="579.1600000000001" y="-616" />
            </Array>
          </mxGeometry>
        </mxCell>
        <mxCell id="zw7l0-jRfB2ACPVZ4vOM-53" value="OpenVPN" style="html=1;whiteSpace=wrap;" vertex="1" parent="1">
          <mxGeometry x="408.15999999999997" y="-606" width="81" height="57.75" as="geometry" />
        </mxCell>
        <mxCell id="dQZn-Cv7lsAbgTTBRTIx-93" value="" style="endArrow=block;dashed=1;endFill=0;endSize=12;html=1;rounded=0;exitX=0.5;exitY=0;exitDx=0;exitDy=0;entryX=0.5;entryY=1;entryDx=0;entryDy=0;" edge="1" parent="1" source="zw7l0-jRfB2ACPVZ4vOM-51" target="zw7l0-jRfB2ACPVZ4vOM-47">
          <mxGeometry width="160" relative="1" as="geometry">
            <mxPoint x="589.1600000000001" y="-596" as="sourcePoint" />
            <mxPoint x="589.1600000000001" y="-646" as="targetPoint" />
            <Array as="points">
              <mxPoint x="722.1600000000001" y="-616" />
              <mxPoint x="579.1600000000001" y="-616" />
            </Array>
          </mxGeometry>
        </mxCell>
        <mxCell id="dQZn-Cv7lsAbgTTBRTIx-94" value="" style="endArrow=block;dashed=1;endFill=0;endSize=12;html=1;rounded=0;exitX=0.5;exitY=0;exitDx=0;exitDy=0;entryX=0.5;entryY=1;entryDx=0;entryDy=0;" edge="1" parent="1" source="dQZn-Cv7lsAbgTTBRTIx-86" target="zw7l0-jRfB2ACPVZ4vOM-47">
          <mxGeometry width="160" relative="1" as="geometry">
            <mxPoint x="640.1600000000001" y="-596" as="sourcePoint" />
            <mxPoint x="589.1600000000001" y="-646" as="targetPoint" />
            <Array as="points">
              <mxPoint x="539.1600000000001" y="-616" />
              <mxPoint x="579.1600000000001" y="-616" />
            </Array>
          </mxGeometry>
        </mxCell>
        <mxCell id="zw7l0-jRfB2ACPVZ4vOM-55" value="" style="endArrow=block;dashed=1;endFill=0;endSize=12;html=1;rounded=0;exitX=0.5;exitY=0;exitDx=0;exitDy=0;entryX=0.5;entryY=1;entryDx=0;entryDy=0;" edge="1" parent="1" source="zw7l0-jRfB2ACPVZ4vOM-53" target="zw7l0-jRfB2ACPVZ4vOM-47">
          <mxGeometry width="160" relative="1" as="geometry">
            <mxPoint x="224.15999999999997" y="-588.5" as="sourcePoint" />
            <mxPoint x="81.15999999999997" y="-638.5" as="targetPoint" />
            <Array as="points">
              <mxPoint x="449.15999999999985" y="-616" />
              <mxPoint x="579.1600000000001" y="-616" />
            </Array>
          </mxGeometry>
        </mxCell>
        <mxCell id="zw7l0-jRfB2ACPVZ4vOM-56" value="&lt;p style=&quot;margin:0px;margin-top:6px;text-align:center;&quot;&gt;&lt;/p&gt;&lt;div style=&quot;text-align: center;&quot;&gt;&lt;span style=&quot;background-color: initial;&quot;&gt;«c&lt;/span&gt;&lt;span style=&quot;background-color: initial; border-color: var(--border-color);&quot;&gt;omponent&lt;/span&gt;&lt;span style=&quot;background-color: initial;&quot;&gt;»&lt;/span&gt;&lt;/div&gt;&lt;span style=&quot;&quot;&gt;&lt;div style=&quot;text-align: center;&quot;&gt;OpenVPN&lt;/div&gt;&lt;/span&gt;" style="align=left;overflow=fill;html=1;dropTarget=0;whiteSpace=wrap;" vertex="1" parent="1">
          <mxGeometry x="832" y="-860" width="140" height="51.75" as="geometry" />
        </mxCell>
        <mxCell id="zw7l0-jRfB2ACPVZ4vOM-57" value="" style="shape=component;jettyWidth=8;jettyHeight=4;" vertex="1" parent="zw7l0-jRfB2ACPVZ4vOM-56">
          <mxGeometry x="1" width="20" height="20" relative="1" as="geometry">
            <mxPoint x="-24" y="4" as="offset" />
          </mxGeometry>
        </mxCell>
        <mxCell id="zw7l0-jRfB2ACPVZ4vOM-62" value="" style="ellipse;whiteSpace=wrap;html=1;align=center;aspect=fixed;fillColor=none;strokeColor=none;resizable=0;perimeter=centerPerimeter;rotatable=0;allowArrows=0;points=[];outlineConnect=1;" vertex="1" parent="1">
          <mxGeometry x="1469.16" y="-600" width="10" height="10" as="geometry" />
        </mxCell>
        <mxCell id="zw7l0-jRfB2ACPVZ4vOM-63" value="" style="rounded=0;orthogonalLoop=1;jettySize=auto;html=1;endArrow=halfCircle;endFill=0;endSize=6;strokeWidth=1;sketch=0;exitX=1;exitY=0.5;exitDx=0;exitDy=0;" edge="1" parent="1" source="zw7l0-jRfB2ACPVZ4vOM-56">
          <mxGeometry relative="1" as="geometry">
            <mxPoint x="1069.1600000000003" y="-814.2500000000002" as="sourcePoint" />
            <mxPoint x="1002" y="-774" as="targetPoint" />
            <Array as="points">
              <mxPoint x="982" y="-834" />
              <mxPoint x="982" y="-774" />
            </Array>
          </mxGeometry>
        </mxCell>
        <mxCell id="zw7l0-jRfB2ACPVZ4vOM-64" value="" style="rounded=0;orthogonalLoop=1;jettySize=auto;html=1;endArrow=oval;endFill=0;sketch=0;sourcePerimeterSpacing=0;targetPerimeterSpacing=0;endSize=10;exitX=0;exitY=0.5;exitDx=0;exitDy=0;" edge="1" parent="1" source="dQZn-Cv7lsAbgTTBRTIx-109">
          <mxGeometry relative="1" as="geometry">
            <mxPoint x="992" y="-718" as="sourcePoint" />
            <mxPoint x="1002" y="-774" as="targetPoint" />
            <Array as="points" />
          </mxGeometry>
        </mxCell>
        <mxCell id="zw7l0-jRfB2ACPVZ4vOM-115" value="" style="rounded=0;orthogonalLoop=1;jettySize=auto;html=1;endArrow=halfCircle;endFill=0;endSize=6;strokeWidth=1;sketch=0;exitX=1;exitY=0.5;exitDx=0;exitDy=0;" edge="1" parent="1">
          <mxGeometry relative="1" as="geometry">
            <mxPoint x="782.1599999999999" y="-765.62" as="sourcePoint" />
            <mxPoint x="802" y="-765.87" as="targetPoint" />
          </mxGeometry>
        </mxCell>
        <mxCell id="zw7l0-jRfB2ACPVZ4vOM-116" value="" style="rounded=0;orthogonalLoop=1;jettySize=auto;html=1;endArrow=oval;endFill=0;sketch=0;sourcePerimeterSpacing=0;targetPerimeterSpacing=0;endSize=10;exitX=0;exitY=0.5;exitDx=0;exitDy=0;" edge="1" parent="1" source="zw7l0-jRfB2ACPVZ4vOM-56">
          <mxGeometry relative="1" as="geometry">
            <mxPoint x="1079" y="-833.25" as="sourcePoint" />
            <mxPoint x="802" y="-766" as="targetPoint" />
            <Array as="points">
              <mxPoint x="822" y="-834" />
              <mxPoint x="822" y="-766" />
            </Array>
          </mxGeometry>
        </mxCell>
        <mxCell id="dQZn-Cv7lsAbgTTBRTIx-107" value="" style="rounded=0;whiteSpace=wrap;html=1;" vertex="1" parent="1">
          <mxGeometry x="762.1600000000001" y="-775.75" width="20" height="20" as="geometry" />
        </mxCell>
        <mxCell id="zw7l0-jRfB2ACPVZ4vOM-120" value="XRDP" style="html=1;whiteSpace=wrap;" vertex="1" parent="1">
          <mxGeometry x="1056.5" y="-616.25" width="81" height="57.75" as="geometry" />
        </mxCell>
        <mxCell id="zw7l0-jRfB2ACPVZ4vOM-121" value="OpenVPN" style="html=1;whiteSpace=wrap;" vertex="1" parent="1">
          <mxGeometry x="1196.5" y="-616.25" width="81" height="57.75" as="geometry" />
        </mxCell>
        <mxCell id="zw7l0-jRfB2ACPVZ4vOM-122" value="" style="endArrow=open;endSize=12;dashed=1;html=1;rounded=0;exitX=0.5;exitY=1;exitDx=0;exitDy=0;entryX=0.5;entryY=0;entryDx=0;entryDy=0;" edge="1" parent="1" source="SCAu-SgGnWIEM-NVdhJq-48" target="zw7l0-jRfB2ACPVZ4vOM-43">
          <mxGeometry width="160" relative="1" as="geometry">
            <mxPoint x="1177.5" y="-734.25" as="sourcePoint" />
            <mxPoint x="1177.5" y="-703.25" as="targetPoint" />
          </mxGeometry>
        </mxCell>
        <mxCell id="zw7l0-jRfB2ACPVZ4vOM-123" value="" style="endArrow=block;dashed=1;endFill=0;endSize=12;html=1;rounded=0;exitX=0.5;exitY=0;exitDx=0;exitDy=0;entryX=0.495;entryY=1;entryDx=0;entryDy=0;entryPerimeter=0;" edge="1" parent="1" source="zw7l0-jRfB2ACPVZ4vOM-120" target="zw7l0-jRfB2ACPVZ4vOM-43">
          <mxGeometry width="160" relative="1" as="geometry">
            <mxPoint x="1031.92" y="-605" as="sourcePoint" />
            <mxPoint x="1168" y="-654" as="targetPoint" />
            <Array as="points">
              <mxPoint x="1097.5" y="-625" />
              <mxPoint x="1166.5" y="-625" />
            </Array>
          </mxGeometry>
        </mxCell>
        <mxCell id="dQZn-Cv7lsAbgTTBRTIx-109" value="" style="rounded=0;whiteSpace=wrap;html=1;" vertex="1" parent="1">
          <mxGeometry x="1016.5" y="-784" width="20" height="20" as="geometry" />
        </mxCell>
        <mxCell id="zw7l0-jRfB2ACPVZ4vOM-124" value="" style="endArrow=block;dashed=1;endFill=0;endSize=12;html=1;rounded=0;exitX=0.5;exitY=0;exitDx=0;exitDy=0;entryX=0.495;entryY=1.003;entryDx=0;entryDy=0;entryPerimeter=0;" edge="1" parent="1" source="zw7l0-jRfB2ACPVZ4vOM-121" target="zw7l0-jRfB2ACPVZ4vOM-43">
          <mxGeometry width="160" relative="1" as="geometry">
            <mxPoint x="1107.5" y="-607" as="sourcePoint" />
            <mxPoint x="1167" y="-654" as="targetPoint" />
            <Array as="points">
              <mxPoint x="1236.5" y="-625" />
              <mxPoint x="1166.5" y="-625" />
            </Array>
          </mxGeometry>
        </mxCell>
        <mxCell id="dQZn-Cv7lsAbgTTBRTIx-110" value="" style="endArrow=none;html=1;rounded=0;entryX=0;entryY=0.5;entryDx=0;entryDy=0;exitX=1;exitY=0.5;exitDx=0;exitDy=0;" edge="1" parent="1" source="dQZn-Cv7lsAbgTTBRTIx-109" target="SCAu-SgGnWIEM-NVdhJq-48">
          <mxGeometry width="50" height="50" relative="1" as="geometry">
            <mxPoint x="836.5" y="-768.71" as="sourcePoint" />
            <mxPoint x="945.5" y="-768.71" as="targetPoint" />
          </mxGeometry>
        </mxCell>
        <mxCell id="dQZn-Cv7lsAbgTTBRTIx-108" value="" style="endArrow=none;html=1;rounded=0;entryX=0;entryY=0.5;entryDx=0;entryDy=0;exitX=1;exitY=0.5;exitDx=0;exitDy=0;" edge="1" parent="1" source="SCAu-SgGnWIEM-NVdhJq-44" target="dQZn-Cv7lsAbgTTBRTIx-107">
          <mxGeometry width="50" height="50" relative="1" as="geometry">
            <mxPoint x="731" y="-783.75" as="sourcePoint" />
            <mxPoint x="781" y="-833.75" as="targetPoint" />
          </mxGeometry>
        </mxCell>
        <mxCell id="dQZn-Cv7lsAbgTTBRTIx-113" value="RDPConnection" style="text;html=1;align=center;verticalAlign=middle;resizable=0;points=[];autosize=1;strokeColor=none;fillColor=none;" vertex="1" parent="1">
          <mxGeometry x="919.5" y="-756" width="110" height="30" as="geometry" />
        </mxCell>
        <mxCell id="zw7l0-jRfB2ACPVZ4vOM-129" value="RDPConnection" style="text;html=1;align=center;verticalAlign=middle;resizable=0;points=[];autosize=1;strokeColor=none;fillColor=none;" vertex="1" parent="1">
          <mxGeometry x="775.1600000000001" y="-755" width="110" height="30" as="geometry" />
        </mxCell>
      </root>
    </mxGraphModel>
  </diagram>
</mxfile>
